P3
# CREATOR: GIMP PNM Filter Version 1.1
16 16
255
0
0
0
0
0
0
0
0
0
3
3
2
15
13
9
0
0
0
0
0
0
0
0
0
18
14
0
0
0
0
95
71
0
18
13
0
15
11
0
9
6
0
0
0
0
0
0
0
0
0
0
0
0
0
45
40
26
227
201
131
188
166
109
147
129
84
65
57
37
2
2
1
60
45
0
167
124
0
193
141
0
139
101
0
187
135
0
0
0
0
0
0
0
0
0
0
0
0
0
0
0
0
137
121
79
191
169
110
246
217
141
221
196
131
225
200
135
250
211
99
179
152
72
249
184
1
254
200
65
252
184
40
193
136
0
99
69
0
32
22
0
0
0
0
0
0
0
0
0
0
95
84
55
242
214
140
199
180
131
142
141
139
183
174
152
244
212
128
248
192
34
254
203
67
255
194
77
255
176
63
250
165
21
104
71
0
0
0
0
0
0
0
0
0
0
0
0
0
66
64
61
231
205
137
249
220
143
121
116
103
108
108
108
178
156
95
246
181
9
252
189
40
255
182
68
255
163
54
249
158
16
184
125
6
23
15
0
0
0
0
0
0
0
27
27
27
107
107
107
130
126
114
235
209
139
131
128
120
50
50
50
133
133
133
131
126
113
244
173
3
244
169
1
248
161
14
195
143
38
38
38
38
8
8
8
0
0
0
0
0
0
63
63
63
146
146
146
80
80
80
119
119
119
93
93
93
35
35
35
107
107
107
155
133
83
152
126
69
191
141
34
135
110
60
175
127
42
83
79
74
16
16
16
0
0
0
0
0
0
90
90
90
146
146
146
101
101
101
50
50
50
40
40
40
103
103
103
121
121
121
109
109
109
97
97
97
122
104
68
81
80
78
77
77
77
84
84
84
19
19
19
0
0
0
0
0
0
103
103
103
144
144
144
125
125
125
125
125
125
123
123
123
118
118
118
110
110
110
98
98
98
89
89
89
79
79
79
72
72
72
68
68
68
84
84
84
19
19
19
0
0
0
0
0
0
93
93
93
128
128
128
113
113
113
111
111
111
108
108
108
103
103
103
96
96
96
87
87
87
79
79
79
71
71
71
65
65
65
61
61
61
75
75
75
15
15
15
0
0
0
0
0
0
69
69
69
112
112
112
105
105
105
97
97
97
93
93
93
90
90
90
84
84
84
76
76
76
69
69
69
63
63
63
57
57
57
59
59
59
61
61
61
9
9
9
0
0
0
0
0
0
40
40
40
97
97
97
98
98
98
86
86
86
81
81
81
77
77
77
72
72
72
66
66
66
61
61
61
55
55
55
52
52
52
60
60
60
42
42
42
5
5
5
0
0
0
0
0
0
13
13
13
49
49
49
98
98
98
84
84
84
72
72
72
67
67
67
63
63
63
58
58
58
53
53
53
49
49
49
55
55
55
60
60
60
8
8
8
1
1
1
0
0
0
0
0
0
0
0
0
20
20
20
42
42
42
86
86
86
76
76
76
65
65
65
57
57
57
53
53
53
53
53
53
57
57
57
58
58
58
9
9
9
2
2
2
0
0
0
0
0
0
0
0
0
0
0
0
0
0
0
14
14
14
25
25
25
58
58
58
69
69
69
71
71
71
66
66
66
55
55
55
38
38
38
6
6
6
2
2
2
0
0
0
0
0
0
0
0
0
0
0
0
0
0
0
0
0
0
0
0
0
5
5
5
10
10
10
11
11
11
11
11
11
9
9
9
6
6
6
3
3
3
1
1
1
0
0
0
0
0
0
0
0
0
0
0
0
