P3
# CREATOR: GIMP PNM Filter Version 1.1
16 16
255
0
0
0
2
1
0
122
91
0
200
148
0
193
143
0
7
5
0
0
0
0
0
0
0
0
0
0
0
0
0
22
16
0
200
148
0
192
143
0
37
28
0
0
0
0
0
0
0
5
3
0
129
94
0
218
182
81
250
236
191
224
183
81
187
119
26
190
83
81
233
99
98
233
96
95
188
75
74
184
113
23
227
189
94
229
199
115
188
137
0
27
20
0
0
0
0
112
81
0
216
181
84
249
232
181
227
184
85
227
147
25
245
139
132
242
153
143
239
164
152
239
163
151
241
150
140
242
131
116
227
145
17
234
200
119
223
191
106
187
134
0
5
3
0
111
78
0
225
194
115
223
180
85
229
147
27
241
158
147
242
176
166
249
145
134
254
114
105
254
110
100
248
137
125
241
169
161
237
152
117
232
163
49
244
223
167
197
150
35
35
24
0
53
37
0
189
128
4
219
139
21
241
158
146
245
170
160
244
163
156
248
228
226
251
249
250
252
248
249
247
225
224
243
145
142
245
157
147
232
149
87
222
149
34
179
119
3
34
23
0
0
0
0
133
63
49
244
139
127
242
175
165
244
157
150
255
255
255
252
252
252
235
235
235
255
255
255
255
255
255
254
253
253
241
134
133
240
163
155
236
114
97
125
33
30
0
0
0
0
0
0
190
81
79
241
152
142
248
134
125
246
220
223
255
255
255
255
255
255
159
159
159
249
249
249
255
255
255
189
189
189
239
206
209
247
106
99
237
134
129
181
39
44
0
0
0
0
0
0
233
96
95
239
162
151
254
98
89
253
250
251
255
255
255
255
255
255
127
127
127
177
177
177
126
126
126
202
202
202
243
237
239
254
64
58
235
151
143
223
44
50
0
0
0
0
0
0
232
92
91
239
161
150
254
87
79
251
247
248
255
255
255
247
247
247
139
139
139
126
126
126
211
211
211
255
255
255
241
232
235
254
61
52
234
150
143
222
39
46
0
0
0
0
0
0
187
71
71
240
146
137
248
111
104
238
205
209
255
255
255
251
251
251
198
198
198
243
243
243
255
255
255
252
252
252
233
190
197
247
88
82
235
129
124
179
29
35
0
0
0
0
0
0
124
45
45
242
125
120
237
166
160
239
118
116
253
252
253
255
255
255
255
255
255
255
255
255
255
255
255
253
252
253
237
103
103
230
159
157
236
97
97
119
17
21
0
0
0
0
0
0
50
17
17
205
67
68
238
146
138
238
145
141
239
118
116
244
214
216
254
254
254
254
254
254
244
216
217
238
114
111
234
136
134
235
134
130
198
28
34
48
6
8
0
0
0
0
0
0
0
0
0
99
30
31
224
111
113
235
145
139
230
164
160
247
99
89
254
73
58
254
69
54
247
91
82
227
160
160
229
148
145
220
81
87
95
12
15
0
0
0
0
0
0
0
0
0
0
0
0
50
50
50
211
211
211
199
187
188
236
111
110
236
132
127
234
149
142
234
149
142
235
127
124
229
111
112
198
194
194
197
196
196
48
48
48
0
0
0
0
0
0
0
0
0
15
15
15
172
172
172
219
219
219
168
165
165
121
27
30
181
35
40
222
39
46
221
35
43
178
26
32
119
16
20
172
169
169
217
217
217
177
177
177
25
25
25
0
0
0
0
0
0
8
8
8
137
137
137
158
158
158
27
27
27
0
0
0
0
0
0
0
0
0
0
0
0
0
0
0
0
0
0
20
20
20
152
152
152
145
145
145
15
15
15
0
0
0
