P3
# CREATOR: GIMP PNM Filter Version 1.1
16 16
255
34
35
35
169
215
232
169
215
232
150
203
220
169
215
232
169
215
232
169
215
232
169
215
232
169
215
232
169
215
232
169
215
232
169
215
232
169
215
232
195
198
206
201
206
215
34
35
35
180
201
210
220
248
253
246
255
255
255
255
255
246
255
255
246
255
255
246
255
255
246
255
255
246
255
255
246
255
255
246
255
255
246
255
255
246
255
255
246
255
255
218
237
252
169
215
232
180
201
210
220
248
253
235
239
249
250
238
249
235
239
249
235
239
249
235
239
249
235
239
249
235
239
249
235
239
249
235
239
249
235
239
249
235
239
249
235
239
249
218
237
252
150
203
220
150
203
220
205
247
253
218
237
252
220
231
234
205
247
253
218
237
252
218
237
252
218
237
252
218
237
252
218
237
252
218
237
252
218
237
252
218
237
252
218
237
252
218
237
252
150
203
220
150
203
220
202
232
238
218
237
252
202
232
238
202
232
238
24
124
194
24
124
194
203
233
250
218
237
252
202
232
238
220
231
234
203
233
250
218
237
252
203
233
250
202
232
238
150
203
220
150
203
220
202
232
238
203
233
250
202
232
238
202
232
238
24
124
194
24
124
194
203
233
250
186
232
245
205
247
253
203
233
250
202
232
238
202
232
238
202
232
238
202
232
238
150
203
220
140
186
229
202
232
238
202
232
238
202
232
238
202
232
238
24
124
194
47
140
204
44
134
187
24
124
194
44
134
187
44
134
187
186
232
245
202
232
238
202
232
238
202
232
238
141
180
212
141
180
212
186
232
245
186
232
245
202
232
238
202
232
238
47
140
204
47
140
204
47
140
204
47
140
204
47
140
204
47
140
204
203
233
250
185
218
235
186
232
245
202
232
238
113
184
226
113
171
212
186
232
245
185
218
235
185
218
235
186
232
245
47
140
204
45
152
221
165
206
244
203
233
250
202
232
238
202
219
236
202
219
236
185
221
248
186
232
245
185
218
235
113
184
226
113
171
212
186
232
245
185
218
235
185
218
235
186
232
245
43
169
215
47
140
204
116
165
186
154
227
246
186
232
245
186
232
245
185
218
235
169
218
247
185
218
235
185
218
235
113
171
212
116
165
186
185
218
235
169
215
232
169
215
232
169
215
232
148
206
240
68
157
221
26
159
222
26
159
222
26
159
222
43
169
215
186
232
245
169
215
232
169
215
232
185
218
235
116
165
186
116
165
186
185
218
235
169
215
232
169
215
232
169
215
232
185
218
235
148
206
240
43
169
215
26
159
222
43
169
215
43
169
215
202
232
238
185
218
235
169
215
232
185
218
235
116
165
186
116
165
186
169
215
232
150
203
220
185
204
229
169
215
232
169
215
232
169
215
232
186
232
245
186
232
245
186
232
245
186
232
245
169
215
232
169
215
232
169
215
232
185
218
235
77
160
174
77
160
174
169
215
232
169
215
232
167
201
229
169
215
232
150
203
220
150
203
220
169
215
232
167
201
229
167
201
229
169
215
232
150
203
220
150
203
220
169
215
232
169
215
232
77
160
174
116
165
186
116
165
186
154
227
246
185
221
248
154
227
246
185
221
248
185
218
235
185
221
248
185
221
248
185
221
248
185
221
248
185
218
235
185
221
248
169
215
232
113
171
212
116
165
186
34
35
35
116
165
186
77
160
174
77
160
174
77
160
174
77
160
174
77
160
174
77
160
174
77
160
174
77
160
174
77
160
174
77
160
174
77
160
174
88
134
134
116
165
186
34
35
35
